<svg xmlns="http://www.w3.org/2000/svg" class="Footer_socialLinkLogo__Bqkq_" width="32" height="32" viewBox="0 0 32 32" aria-hidden="true"><path fill-rule="evenodd" d="M16.192 8.902a7.29 7.29 0 1 0 0 14.58 7.29 7.29 0 0 0 0-14.58Zm0 12.014a4.734 4.734 0 1 1 0-9.468 4.734 4.734 0 0 1 0 9.468Z"/><path d="M25.471 8.614a1.7 1.7 0 1 1-3.4 0 1.7 1.7 0 0 1 3.4 0Z"/><path fill-rule="evenodd" d="M16.192 2c-3.859 0-4.336 0-5.848.09-1.176.023-2.339.245-3.44.656a6.872 6.872 0 0 0-2.517 1.64 7.051 7.051 0 0 0-1.641 2.517 10.552 10.552 0 0 0-.656 3.441c-.07 1.512-.09 1.99-.09 5.848 0 3.859 0 4.336.09 5.848.023 1.176.245 2.34.656 3.441.355.95.915 1.809 1.64 2.516a7.05 7.05 0 0 0 2.517 1.641c1.103.41 2.266.631 3.441.657 1.512.07 1.99.09 5.848.09 3.859 0 4.337 0 5.848-.09a10.444 10.444 0 0 0 3.441-.657 6.873 6.873 0 0 0 2.516-1.64 6.963 6.963 0 0 0 1.641-2.517c.41-1.102.631-2.265.657-3.44.07-1.513.09-1.99.09-5.849 0-3.858 0-4.336-.09-5.848a10.444 10.444 0 0 0-.657-3.44 6.871 6.871 0 0 0-1.64-2.517 6.961 6.961 0 0 0-2.517-1.641 10.552 10.552 0 0 0-3.44-.656C20.537 2.01 20.05 2 16.19 2Zm0 2.556c3.79 0 4.237 0 5.739.08.9.012 1.79.177 2.635.487a4.735 4.735 0 0 1 2.696 2.695 7.65 7.65 0 0 1 .487 2.636c.07 1.491.08 1.989.08 5.738v.002c0 3.748 0 4.235-.08 5.737-.012.9-.177 1.79-.487 2.635a4.734 4.734 0 0 1-2.696 2.695 7.647 7.647 0 0 1-2.635.488c-1.492.07-1.99.08-5.739.08-3.75 0-4.237 0-5.738-.08a7.956 7.956 0 0 1-2.636-.488 4.733 4.733 0 0 1-2.695-2.695 7.648 7.648 0 0 1-.487-2.635c-.07-1.492-.08-1.99-.08-5.739 0-3.75 0-4.237.08-5.738.012-.9.177-1.791.487-2.636a4.734 4.734 0 0 1 2.695-2.695 7.648 7.648 0 0 1 2.636-.487c1.501-.07 1.989-.08 5.738-.08Z"/></svg>