<svg xmlns="http://www.w3.org/2000/svg" width="24" height="24" viewBox="0 0 24 24" fill="none" stroke="currentColor" stroke-linecap="round" stroke-linejoin="round" stroke-width="1.5" aria-hidden="true"><path d="M20.65 12.361v7.253a2.072 2.072 0 0 1-2.072 2.072H4.072A2.072 2.072 0 0 1 2 19.614V5.108a2.072 2.072 0 0 1 2.072-2.072h7.253m4.145 2.072h6.216M18.578 2v6.217m2.072 7.253-3.197-3.198a2.072 2.072 0 0 0-2.93 0l-9.415 9.414M10.29 9.253a2.072 2.072 0 1 1-4.145 0 2.072 2.072 0 0 1 4.145 0Z"/></svg>