<svg xmlns="http://www.w3.org/2000/svg" class="ChannelsSection_linkLogo__FL9O1" width="24" height="24" viewBox="0 0 24 24" aria-hidden="true"><path fill="currentColor" fill-rule="evenodd" d="M16.68 17.768c2.955-.329 5.528-2.027 5.852-3.58.51-2.444.467-5.965.467-5.965 0-4.773-3.352-6.171-3.352-6.171-1.69-.725-4.592-1.029-7.608-1.052h-.074c-3.015.023-5.915.327-7.606 1.052 0 0-3.352 1.398-3.352 6.171l-.003.91c-.005.88-.01 1.856.017 2.875.122 4.667.918 9.267 5.544 10.41 2.133.526 3.964.636 5.439.56 2.675-.138 4.176-.89 4.176-.89l-.088-1.81s-1.911.562-4.058.494c-2.127-.068-4.372-.214-4.716-2.65a4.664 4.664 0 0 1-.048-.683s2.088.476 4.734.59c1.618.068 3.135-.09 4.676-.26Zm2.365-3.396V8.593c0-1.18-.322-2.12-.97-2.814-.668-.694-1.542-1.05-2.627-1.05-1.257 0-2.208.45-2.837 1.351L12 7.036l-.611-.956c-.63-.9-1.58-1.351-2.836-1.351-1.086 0-1.96.356-2.628 1.05-.648.695-.97 1.633-.97 2.814v5.779h2.454V8.763c0-1.182.534-1.782 1.6-1.782 1.18 0 1.771.711 1.771 2.12v3.07h2.44V9.1c0-1.409.591-2.12 1.77-2.12 1.067 0 1.6.6 1.6 1.782v5.609h2.455Z"/></svg>