<svg xmlns="http://www.w3.org/2000/svg" class="ChannelsSection_linkLogo__FL9O1" width="24" height="24" viewBox="0 0 24 24" aria-hidden="true"><path fill="currentColor" d="M23.76 7.148s-.234-1.68-.954-2.42c-.912-.97-1.935-.974-2.404-1.031-3.359-.247-8.397-.247-8.397-.247h-.01s-5.038 0-8.397.247c-.469.057-1.491.061-2.404 1.032-.72.74-.954 2.42-.954 2.42S0 9.12 0 11.092v1.85c0 1.971.24 3.944.24 3.944s.234 1.68.954 2.42c.913.97 2.112.939 2.646 1.04 1.92.188 8.16.246 8.16.246s5.043-.008 8.402-.255c.469-.056 1.492-.06 2.404-1.032.72-.74.954-2.42.954-2.42s.24-1.972.24-3.944v-1.85c0-1.971-.24-3.944-.24-3.944ZM9.523 15.183V8.335l6.484 3.435-6.484 3.413Z"/></svg>