<svg xmlns="http://www.w3.org/2000/svg" class="ChannelsSection_linkLogo__FL9O1" width="24" height="24" viewBox="0 0 24 24" aria-hidden="true"><path fill="currentColor" d="M5.769 4.212C8.29 5.972 11.004 9.539 12 11.453c.996-1.914 3.709-5.482 6.231-7.241C20.051 2.942 23 1.96 23 5.086c0 .624-.385 5.244-.611 5.994-.785 2.608-3.647 3.273-6.192 2.87 4.449.704 5.58 3.035 3.136 5.366-4.642 4.426-6.672-1.111-7.192-2.53-.096-.26-.14-.382-.141-.278 0-.104-.045.018-.14.278-.52 1.419-2.55 6.956-7.193 2.53-2.445-2.331-1.313-4.662 3.136-5.366-2.545.403-5.407-.262-6.192-2.87C1.385 10.33 1 5.71 1 5.086c0-3.126 2.949-2.144 4.769-.874Z"/></svg>