<svg xmlns="http://www.w3.org/2000/svg" class="Footer_socialLinkLogo__Bqkq_" width="32" height="32" viewBox="0 0 32 32" aria-hidden="true"><path d="M7.692 5.615c3.363 2.347 6.98 7.104 8.308 9.656 1.328-2.552 4.945-7.31 8.308-9.656 2.427-1.692 6.359-3.002 6.359 1.166 0 .832-.514 6.992-.815 7.993-1.047 3.476-4.863 4.363-8.257 3.827 5.933.938 7.442 4.046 4.183 7.153-6.19 5.902-8.897-1.48-9.59-3.372-.128-.347-.187-.51-.188-.372 0-.138-.06.025-.188.372-.693 1.891-3.4 9.274-9.59 3.372-3.259-3.108-1.75-6.215 4.183-7.154-3.394.537-7.21-.35-8.257-3.827-.301-1-.815-7.16-.815-7.992 0-4.168 3.932-2.858 6.359-1.166Z"/></svg>