<svg xmlns="http://www.w3.org/2000/svg" width="24" height="24" viewBox="0 0 24 24" fill="none" stroke="currentColor" stroke-linecap="round" stroke-linejoin="round" stroke-width="1.5" aria-hidden="true"><path d="M9.217 13.909h-5.18c-.573 0-1.037.464-1.037 1.036v5.18c0 .573.464 1.037 1.036 1.037h5.18c.573 0 1.037-.464 1.037-1.036v-5.18c0-.573-.464-1.037-1.036-1.037ZM9.217 2.512h-5.18C3.463 2.512 3 2.975 3 3.548v5.18c0 .573.464 1.036 1.036 1.036h5.18c.573 0 1.037-.463 1.037-1.036v-5.18c0-.573-.464-1.036-1.036-1.036ZM20.614 13.909h-5.18c-.573 0-1.036.464-1.036 1.036v5.18c0 .573.463 1.037 1.036 1.037h5.18c.572 0 1.036-.464 1.036-1.036v-5.18c0-.573-.463-1.037-1.036-1.037ZM17.254 2.26l-3.14 3.14a.888.888 0 0 0 0 1.256l3.14 3.14a.888.888 0 0 0 1.256 0l3.14-3.14a.888.888 0 0 0 0-1.256l-3.14-3.14a.888.888 0 0 0-1.256 0Z"/></svg>