<svg xmlns="http://www.w3.org/2000/svg" class="Footer_socialLinkLogo__Bqkq_" width="32" height="32" viewBox="0 0 32 32" aria-hidden="true"><path d="M26.627 26.113h-4.182v-6.562c0-1.562 0-3.583-2.185-3.583s-2.53 1.708-2.53 3.469v6.676h-4.182v-13.54h4.036v1.843h.063a4.415 4.415 0 0 1 1.69-1.637 4.435 4.435 0 0 1 2.293-.54c4.265 0 5.05 2.792 5.05 6.437l-.053 7.438ZM8.74 10.77a2.452 2.452 0 0 1-2.26-1.504 2.43 2.43 0 0 1 .53-2.657 2.45 2.45 0 0 1 2.666-.528 2.444 2.444 0 0 1 1.51 2.252c0 .646-.257 1.266-.716 1.723a2.451 2.451 0 0 1-1.73.714Zm2.091 15.343H6.648v-13.54h4.182v13.54ZM4.526 2c-.554 0-1.086.22-1.478.61a2.08 2.08 0 0 0-.613 1.473v24.218c0 .553.22 1.082.613 1.473.392.39.924.61 1.478.61H28.73c.554 0 1.086-.22 1.478-.61.392-.39.612-.92.612-1.473V4.041a2.08 2.08 0 0 0-.627-1.446A2.095 2.095 0 0 0 28.73 2H4.526Z"/></svg>