<svg xmlns="http://www.w3.org/2000/svg" width="24" height="24" viewBox="0 0 24 24" fill="none" stroke="currentColor" stroke-linecap="round" stroke-linejoin="round" stroke-width="1.5" aria-hidden="true"><path d="m14.432 7.18 3.109 3.11M5.107 6.144v4.144m14.506 4.145v4.144M10.288 2v2.072M7.179 8.217H3.035m18.65 8.289h-4.144m-6.217-13.47H9.252m13.096.663-1.326-1.326a1.254 1.254 0 0 0-1.782 0L2.372 19.241a1.254 1.254 0 0 0 0 1.782l1.326 1.327a1.244 1.244 0 0 0 1.782 0L22.348 5.48a1.243 1.243 0 0 0 0-1.782Z"/></svg>