<svg xmlns="http://www.w3.org/2000/svg" class="VerticalsSection_communityMemberChannelLogo__KRScb" width="24" height="24" viewBox="0 0 24 24" aria-hidden="true"><path fill="currentColor" fill-rule="evenodd" d="M20.387 3.653C19.34 2.565 17.847 2 16.153 2H7.847C4.339 2 2 4.339 2 7.847v8.266c0 1.734.565 3.226 1.694 4.314C4.782 21.476 6.234 22 7.887 22h8.226c1.734 0 3.185-.564 4.234-1.573C21.435 19.38 22 17.887 22 16.153V7.847c0-1.694-.564-3.145-1.613-4.194Zm-.161 12.5c0 1.25-.444 2.258-1.17 2.944-.725.685-1.733 1.048-2.943 1.048H7.887c-1.21 0-2.218-.363-2.943-1.048-.726-.726-1.09-1.734-1.09-2.984V7.847c0-1.21.364-2.218 1.09-2.944.685-.685 1.733-1.048 2.943-1.048h8.306c1.21 0 2.218.363 2.944 1.089.686.725 1.089 1.733 1.089 2.903v8.306Zm-1.694-9.476a1.17 1.17 0 1 1-2.339 0 1.17 1.17 0 0 1 2.339 0ZM6.838 11.96c0-2.863 2.34-5.162 5.162-5.162s5.161 2.34 5.161 5.162S14.863 17.12 12 17.12a5.146 5.146 0 0 1-5.162-5.161Zm1.855 0A3.321 3.321 0 0 0 12 15.266a3.321 3.321 0 0 0 3.306-3.306A3.321 3.321 0 0 0 12 8.653a3.321 3.321 0 0 0-3.307 3.307Z"/></svg>